PathFileType	4	(X/Y/Z)	Kaydara	
DataRate	CameraRate	NumFrames	NumMarkers	Units	OrigDataRate	OrigDataStartFrame	OrigNumFrames	
240.00	240.00	4	72	mm	240.00	1	355	
Frame#	Time	Hips			RightUpLeg			RightLeg			RightFoot			RightFoot_End			LeftUpLeg			LeftLeg			LeftFoot			LeftFoot_End			Spine			Spine1			Spine2			Spine3			Neck			Head			Head_End			RightShoulder			RightArm			RightForeArm			RightHand			RightHandThumb1			RightHandThumb2			RightHandThumb3			RightHandThumb3_End			RightInHandIndex			RightHandIndex1			RightHandIndex2			RightHandIndex3			RightHandIndex3_End			RightInHandMiddle			RightHandMiddle1			RightHandMiddle2			RightHandMiddle3			RightHandMiddle3_End			RightInHandRing			RightHandRing1			RightHandRing2			RightHandRing3			RightHandRing3_End			RightInHandPinky			RightHandPinky1			RightHandPinky2			RightHandPinky3			RightHandPinky3_End			LeftShoulder			LeftArm			LeftForeArm			LeftHand			LeftHandThumb1			LeftHandThumb2			LeftHandThumb3			LeftHandThumb3_End			LeftInHandIndex			LeftHandIndex1			LeftHandIndex2			LeftHandIndex3			LeftHandIndex3_End			LeftInHandMiddle			LeftHandMiddle1			LeftHandMiddle2			LeftHandMiddle3			LeftHandMiddle3_End			LeftInHandRing			LeftHandRing1			LeftHandRing2			LeftHandRing3			LeftHandRing3_End			LeftInHandPinky			LeftHandPinky1			LeftHandPinky2			LeftHandPinky3			LeftHandPinky3_End			
		X1	Y1	Z1	X2	Y2	Z2	X3	Y3	Z3	X4	Y4	Z4	X5	Y5	Z5	X6	Y6	Z6	X7	Y7	Z7	X8	Y8	Z8	X9	Y9	Z9	X10	Y10	Z10	X11	Y11	Z11	X12	Y12	Z12	X13	Y13	Z13	X14	Y14	Z14	X15	Y15	Z15	X16	Y16	Z16	X17	Y17	Z17	X18	Y18	Z18	X19	Y19	Z19	X20	Y20	Z20	X21	Y21	Z21	X22	Y22	Z22	X23	Y23	Z23	X24	Y24	Z24	X25	Y25	Z25	X26	Y26	Z26	X27	Y27	Z27	X28	Y28	Z28	X29	Y29	Z29	X30	Y30	Z30	X31	Y31	Z31	X32	Y32	Z32	X33	Y33	Z33	X34	Y34	Z34	X35	Y35	Z35	X36	Y36	Z36	X37	Y37	Z37	X38	Y38	Z38	X39	Y39	Z39	X40	Y40	Z40	X41	Y41	Z41	X42	Y42	Z42	X43	Y43	Z43	X44	Y44	Z44	X45	Y45	Z45	X46	Y46	Z46	X47	Y47	Z47	X48	Y48	Z48	X49	Y49	Z49	X50	Y50	Z50	X51	Y51	Z51	X52	Y52	Z52	X53	Y53	Z53	X54	Y54	Z54	X55	Y55	Z55	X56	Y56	Z56	X57	Y57	Z57	X58	Y58	Z58	X59	Y59	Z59	X60	Y60	Z60	X61	Y61	Z61	X62	Y62	Z62	X63	Y63	Z63	X64	Y64	Z64	X65	Y65	Z65	X66	Y66	Z66	X67	Y67	Z67	X68	Y68	Z68	X69	Y69	Z69	X70	Y70	Z70	X71	Y71	Z71	X72	Y72	Z72	

1	0.0	7921.0129	906.651	56.2195	8006.007286835549	894.6556504776532	4.398568860932222	7924.460564452821	495.14200429527256	-92.9724590396633	7891.6017989644915	107.28111562822026	-159.7644946250615	7816.654194247987	32.729190797138855	-0.4832699050436293	7845.626744323253	890.482324649098	119.79333258007998	7778.120318515613	487.38006057687085	212.4271632498756	7739.984508844256	55.91524263700043	297.85636180491207	7604.966832991755	-16.450039902220922	182.93074093805214	7875.446430473263	1032.2448618987175	4.884540633789994	7824.554552601034	1096.3773875947945	-46.869186751395574	7767.043115266419	1157.2424736821008	-103.11451108476024	7705.984130457045	1206.0185027313764	-160.6877328577614	7640.4133330904715	1258.5131221669137	-221.52995619579423	7579.516677738938	1306.2397261252427	-276.07879181491506	7463.123797859613	1402.9962909729788	-327.3407336349457	7685.444962322149	1243.168672926491	-223.26932588253717	7740.6542416975135	1226.490387885628	-334.1661972874738	7756.1175615240245	950.2948868344331	-312.69107296774155	7817.315369811649	696.25003153199	-337.802497446857	7819.009226085676	671.9758431579211	-346.51271838974134	7809.059668591462	656.2830618084038	-353.13257035294146	7803.028692313539	644.3723331080431	-356.13741936314176	7798.769050903816	633.6025683093675	-357.26920817255154	7823.930411051783	664.551482705503	-341.35445302273985	7830.669675003971	619.7227338568923	-341.70887889127005	7827.095791329724	597.4790634932295	-343.0406222459699	7819.083561415382	592.843050278157	-345.74427407801795	7808.546075467178	595.2066993207318	-349.2473075181193	7825.745184199861	663.8656948080926	-337.02776044977645	7833.302430245664	619.7675848798665	-335.03283598785765	7829.609885227179	595.5614171165955	-335.9153442004139	7820.042872381233	589.9999861656706	-338.9033455275984	7808.561294005984	592.6016891548658	-342.60316863892416	7826.9464652457755	664.4188973629253	-333.9404664827382	7835.028662607521	625.0675524108773	-329.4098911569855	7832.00916551198	604.1076029232188	-329.5991635820453	7822.886655969865	598.8165970168303	-332.17336085006815	7812.141129396011	601.2976614011639	-335.50618673391136	7827.417953071466	667.1922066785734	-330.5408264047287	7835.42949614553	632.4381333565681	-324.2177171900171	7833.286038017403	616.0422393127202	-323.4844477833212	7826.7648006501795	612.3706745541775	-324.9340564294837	7817.322413472401	614.6765283374292	-327.6400665398057	7638.221320827084	1239.5819657435552	-177.8421386928139	7573.719761255168	1177.1316073397843	-81.18604164186497	7697.175895163175	986.5393571824901	-197.9605562403939	7862.4878310444965	794.1731689485513	-300.94655614007127	7848.308709809316	781.8039442982796	-319.36077785077026	7844.261579014212	761.380864167615	-353.14497899510695	7842.241847385786	745.2925744102458	-377.212133434453	7841.241345128965	730.2844456972942	-397.73769693657704	7848.860041178021	773.9107153380033	-321.9401560816876	7835.37344315336	736.3290144495846	-360.5544740436371	7831.387608291515	710.552442885536	-393.0096035022947	7832.2693245489245	699.1698165138451	-412.81558729699054	7835.26534741841	692.8800397604945	-428.9584994790763	7851.758415592689	770.1623979432561	-322.3298061893265	7840.170181604284	731.4787657211148	-360.2022207634929	7836.253765756258	702.9791882230816	-395.55035815464055	7837.525280292356	689.0678722476338	-419.4134587660575	7840.904472800398	682.0988986918126	-437.061128902193	7854.0979804731605	768.4497413825636	-321.57423787032064	7845.590540973344	732.2260207381554	-354.72652890891106	7842.63831015337	707.0664694146933	-385.40857497468784	7844.109787015088	693.4783939218188	-408.35870491489675	7847.403187490801	686.8454818946368	-424.9198648519785	7857.5970961229905	767.7497014956931	-319.94298487419616	7851.7714975163735	734.0029639202498	-349.204267814051	7850.164683418645	713.5162633498708	-373.4301217569467	7851.604274847327	703.4406613522021	-390.0040294728092	7854.732498151763	697.4703643353149	-404.57898119940705
2	0.004	7921.0129	906.651	56.2195	8006.031577809741	894.662473657152	4.404441730300715	7924.471370507585	495.1434572735152	-92.93046037362274	7891.6730275036225	107.28806086650133	-159.73682935116344	7816.72068064485	32.73231588724794	-0.45973367286634215	7845.598253618453	890.4728332943695	119.78471685090932	7778.110082668794	487.3636064142543	212.40374454260888	7740.0156274819665	55.897008255412885	297.8561596721016	7604.995118821426	-16.46719564990291	182.93204602449572	7875.464485146992	1032.2565845854506	4.896414208151188	7824.600382696521	1096.4088750736864	-46.86257865122754	7767.118677269938	1157.294237176934	-103.1206898926949	7706.0878978602095	1206.0850806623826	-160.71951987221402	7640.54604273299	1258.5945597433029	-221.58892451086544	7579.673457337242	1306.332475897116	-276.16301866072104	7463.268508913718	1403.0604024546483	-327.45643529389076	7685.600164128702	1243.2703447254194	-223.31802432321183	7741.009978415702	1226.7886180730457	-334.3219891613995	7756.424722727339	950.464175363166	-313.23042160923313	7817.6372580249335	696.5628675585359	-339.1365638123349	7819.356380745797	672.3742312671947	-347.9047726287402	7809.388906579502	656.7325983457665	-354.6250141729041	7803.342092222415	644.8491963207325	-357.70805490878365	7799.066372128882	634.0951180545725	-358.91211244165913	7824.271517215329	664.9301027253819	-342.7811976237621	7831.011741105436	620.1619875184555	-343.3093323693122	7827.4188616915835	597.9492353112682	-344.7636317565579	7819.386691920426	593.3283045147899	-347.52416993163104	7808.827217679332	595.7016451175771	-351.0612652168169	7826.076181182751	664.2191125218675	-338.47105979835777	7833.628901074024	620.1665141071674	-336.6545197491524	7829.914266367024	595.9905480520541	-337.67238396626317	7820.322543428267	590.4456165767343	-340.72979534107526	7808.81658823501	593.0570989577038	-344.4672668462096	7827.270473490142	664.7530347339806	-335.3911007063874	7835.343068229945	625.4259521494272	-331.0269704658244	7832.3029311901055	604.4886397551518	-331.33559664284974	7823.155850478573	599.2115909701347	-333.9774766026819	7812.3870546177	601.7009226219814	-337.34604793603756	7827.732477274669	667.5017957677655	-331.9943169579963	7835.729963209672	632.7551042012483	-325.8259278420985	7833.5678548708265	616.371478900754	-325.18965431396975	7827.0276684564815	612.707260708681	-326.6893187678697	7817.564077573941	615.0188070545311	-329.42738935661157	7638.3105705760145	1239.6323332371956	-177.89219072126696	7573.653357736388	1177.0502009321087	-81.25016974998277	7697.067106836149	986.589448349454	-198.35310955705393	7862.522027384165	794.3925610448216	-301.79937084636333	7848.3292354511605	782.067105509451	-320.2804427786338	7844.261996856765	761.6494291385591	-354.1154731262429	7842.219607324627	745.56311249106	-378.21121697046704	7841.192812180255	730.5550973245626	-398.75479010308175	7848.845588689865	774.1755651036449	-322.84196775340877	7835.264227593468	736.6389838122345	-361.5041038107362	7831.226861867388	710.8719656976535	-393.9902750171457	7832.098857176538	699.4812448068296	-413.81616594709834	7835.101886708237	693.175301906621	-429.9759657172222	7851.72440682939	770.4197702639574	-323.2113304540006	7840.03316168411	731.7761080125438	-361.1194125322042	7836.058260385855	703.2857949622986	-396.49858786779214	7837.316964911643	689.3641564197895	-420.3843453856922	7840.703297972955	682.3772234700874	-438.0498322888776	7854.052351606111	768.7008985971912	-322.4401965442353	7845.441857510107	732.5082448804693	-355.61090475213757	7842.436510486466	707.3555171609617	-386.31705009456283	7843.8944946336405	693.7568201628246	-409.2874659466264	7847.194070517542	687.1067068468035	-425.86463486896594	7857.542567116944	767.9906623615298	-320.78971487748754	7851.616185693432	734.2668829172251	-350.0560097099442	7849.9639504080305	713.7835571163959	-374.2964734435327	7851.392303329369	703.6991970740905	-390.88291003101557	7854.52519311947	697.7130808573503	-405.470737997308
3	0.008	7921.0129	906.651	56.2195	8006.053178635594	894.6681869101103	4.409491685864976	7924.479899742157	495.1434931384246	-92.88782171873304	7891.746173678642	107.2946298740291	-159.71027810610383	7816.789176728664	32.73487399519454	-0.4373636499990692	7845.572357070261	890.4644344038131	119.7769427084964	7778.102937563779	487.34835671549615	212.38183097581606	7740.047918450437	55.88003165934024	297.8556981884807	7605.025155005604	-16.4837106647121	182.93292973527653	7875.483037371253	1032.2684231258384	4.908243583644434	7824.646654226126	1096.4407039152534	-46.8556187101784	7767.194565189005	1157.3466123879746	-103.12599910869163	7706.191782905907	1206.152579297108	-160.7497623115713	7640.678639726052	1258.677224807785	-221.64562864905176	7579.82994194053	1306.4267512753643	-276.24431113988845	7463.412672914685	1403.125959659077	-327.5685432358902	7685.754431560786	1243.3724823568382	-223.36465652152532	7741.361752263282	1227.0854187505743	-334.4736179082967	7756.727422382725	950.6365137738244	-313.7612019219206	7817.9512294870665	696.8846415516856	-340.45769966822843	7819.695709743666	672.7826670242688	-349.2837955722826	7809.710647050983	657.1925264916817	-356.1038594405369	7803.648174225808	645.3366490067982	-359.26466302610004	7799.356483341772	634.5983865771276	-360.54060279949385	7824.604590541555	665.3188066350766	-344.1948142049885	7831.345589686544	620.6125588436607	-344.8960839608253	7827.733800769062	598.4311357321834	-346.4723593556647	7819.681916806557	593.8252353285757	-349.28939619633127	7809.100757110508	596.2080170071084	-352.8602141823984	7826.399028938212	664.5824365713613	-339.9011504790878	7833.946979523923	620.5764571445808	-338.26239153924786	7830.210334738851	596.4311132252519	-339.41496983261226	7820.594167011441	590.9026050264163	-342.54131921501545	7809.064162979861	593.5235861936555	-346.3160659279739	7827.586252453213	665.0969260332131	-336.8284854276715	7835.648949743549	625.7949792536438	-332.63022853069174	7832.5882277490355	604.8806399961868	-333.05764068221885	7823.416824128685	599.6174586859709	-335.76674362161623	7812.62506374108	602.1147861137418	-339.1707074343891	7828.038705266914	667.8208917884845	-333.43451576082015	7836.021813814102	633.0822463768155	-327.4203011449454	7833.841078138454	616.7111076364621	-326.8805584196755	7827.282113523508	613.0541458191906	-328.42993832450514	7817.7975830135765	615.3711299557682	-331.1997538165025	7638.400733376374	1239.684504815721	-177.94028942316385	7573.591263291369	1176.9740548827751	-81.31251033447484	7696.959768551044	986.6435296726066	-198.7394165513284	7862.549628996111	794.6167022385654	-302.6405381565025	7848.3434091478675	782.3357707416908	-321.18765822026523	7844.256181318751	761.9239522155862	-355.0722374263747	7842.191268634566	745.8398800200791	-379.195669465372	7841.138337580685	730.8321662102468	-399.75649273477916	7848.8250295082125	774.4458557728013	-323.73125294555274	7835.149689202107	736.9551613974558	-362.43969409008133	7831.061146267532	711.1980784132597	-394.9556889152267	7831.923431864529	699.7993937175864	-414.800764184347	7834.933336630188	693.4773209733825	-430.97687656540427	7851.68439690141	770.6824274683431	-324.0803469966214	7839.890962290116	732.0793992596753	-362.0226310292768	7835.85797259252	703.5987438814277	-397.4315222645684	7837.103886010155	689.6669293089701	-421.3390681059387	7840.497218417236	682.6620712595205	-439.0217443213327	7854.000778572682	768.9572122923244	-323.29370067188205	7845.28802291147	732.79611329399	-356.48156262892485	7842.229915821648	707.6505270722375	-387.2106645788572	7843.67443083232	694.0413367227163	-410.2005336397518	7846.980051886466	687.3740481111267	-426.79312400532285	7857.482117667937	768.2365984124928	-321.62408510472017	7851.455703873773	734.5361176948459	-350.89429537432477	7849.758344810487	714.0563803273076	-375.14847441544134	7851.1754823377105	703.9633359345621	-391.7468424256249	7854.312926648085	697.9614121591704	-406.3470318786682
4	0.013	7921.0129	906.651	56.2195	8006.072090447759	894.672790988453	4.413719405774465	7924.486154286317	495.1421132204905	-92.84454629074102	7891.821231070513	107.30082263889169	-159.68484149052153	7816.859676343951	32.7368655741437	-0.4161600818208271	7845.54905389827	890.4571274139075	119.77000963889225	7778.09888061108	487.33431129164745	212.36142237944694	7740.081378643602	55.86431275945522	297.85497784926804	7605.056938033034	-16.499584441460314	182.93339261905047	7875.5020855413195	1032.2803766512873	4.920028005022736	7824.693363905199	1096.4728718150923	-46.848307690362006	7767.270773996493	1157.3995955120884	-103.13043912258806	7706.295779019261	1206.2209936661536	-160.77845950440698	7640.811115923852	1258.7611112321122	-221.70006681042096	7579.986122100956	1306.5225452110803	-276.3226664022298	7463.556281477035	1403.1929575670326	-327.67705304542716	7685.907755757098	1243.4750791547629	-223.4092210506204	7741.709544124698	1227.3807725696079	-334.6210766049188	7757.025647265824	950.8118899029289	-314.2833853773074	7818.257274780882	697.2153279825449	-341.76582602156014	7820.027202603964	673.201118274133	-350.64970461061296	7810.024880780302	657.6628102995231	-357.56901762771497	7803.9469301614645	645.8346531888045	-360.80715049788955	7799.63937743184	635.1123347281593	-362.15458163427354	7824.929620963488	665.7175636645004	-345.5952177564233	7831.671211211396	621.0744121480795	-346.46903750220446	7828.040600392467	598.9247266807105	-348.16670129942605	7819.969229102044	594.3338036074239	-351.0398458430444	7809.366688015665	596.7257753222947	-354.6440456294707	7826.713717953211	664.9556380646596	-341.31794633523964	7834.256656899662	620.9973813225015	-339.8563537022029	7830.4980832103765	596.8830776227512	-341.1429957570463	7820.857737478613	591.3709153775759	-344.33780708838464	7809.304013947556	594.0011141802063	-348.14945387465076	7827.893792991008	665.4505438136008	-338.25253395654784	7835.9462990316	626.1746041234397	-334.21956787025533	7832.865048507748	605.2835722802839	-334.7651908099034	7823.669571705677	600.0341678614708	-337.54105308764866	7812.855152847958	602.5392191304843	-340.9800545526628	7828.336628383133	668.1494691600209	-334.8613358928456	7836.305040501993	633.4195334518004	-329.00074010882685	7834.105701622633	617.0610981157672	-328.5570570702217	7827.528130776253	613.4113020118725	-330.15580915126657	7818.022925895131	615.7334688977096	-332.95705229630045	7638.491802902598	1239.7384756973668	-177.98643342392313	7573.533478429339	1176.9031696255918	-81.37306176089501	7696.8538891005255	986.7015949196701	-199.11945717193186	7862.570643873977	794.8455760365305	-303.4700103351853	7848.35123990662	782.6099203685865	-322.0823733060305	7844.244143318516	762.2044133816729	-356.0152189408444	7842.1568441024765	746.122856850192	-380.16543693650283	7841.077936134739	731.1156322202089	-400.74275035472334	7848.798374779973	774.7215676529801	-324.60796200831976	7835.02984542129	737.2775243946833	-363.3611939329236	7830.890482675884	711.5307575871506	-395.9057934108157	7831.743070846124	700.1242403753806	-415.76932949483285	7834.75971942457	693.7860752191696	-431.9611787668106	7851.638398168353	770.9503504314563	-324.9368073690065	7839.743602578096	732.3886176028221	-362.9118271895086	7835.652925754028	703.9180125151803	-398.3491115293114	7836.886068298195	689.9761691846754	-422.2775763107595	7840.286258883663	682.9534215853578	-439.97681360863385	7853.943274439862	769.2186638082579	-324.1347026890022	7845.129056982152	733.0896052273097	-357.33845519471345	7842.018549774557	707.9514779625854	-388.0893705963121	7843.449620581675	694.3319231738787	-411.0978594798818	7846.761156638817	687.6474864641953	-427.7052830601952	7857.415761387229	768.4874917358192	-322.4460490335949	7851.2900722237955	734.8106488300565	-351.7190791344979	7849.547890019012	714.3347133664151	-375.98607887043573	7850.953836338257	704.2330589454391	-392.5957804819835	7854.095723314841	698.215340362428	-407.20781613317513
